<svg width="32" height="32" viewBox="0 0 32 32" fill="none" xmlns="http://www.w3.org/2000/svg">
<path d="M16.0001 2.66675C8.64008 2.66675 2.66675 8.64008 2.66675 16.0001C2.66675 23.3601 8.64008 29.3334 16.0001 29.3334C23.3601 29.3334 29.3334 23.3601 29.3334 16.0001C29.3334 8.64008 23.3601 2.66675 16.0001 2.66675ZM16.0001 26.6667C10.1067 26.6667 5.33341 21.8934 5.33341 16.0001C5.33341 10.1067 10.1067 5.33341 16.0001 5.33341C21.8934 5.33341 26.6667 10.1067 26.6667 16.0001C26.6667 21.8934 21.8934 26.6667 16.0001 26.6667Z" fill="#373736"/>
<path d="M17.696 23H15.806V14.468C15.806 14.024 15.812 13.616 15.824 13.244C15.836 12.872 15.854 12.512 15.878 12.164C15.722 12.32 15.56 12.476 15.392 12.632C15.224 12.776 15.032 12.938 14.816 13.118L13.412 14.252L12.44 13.028L16.112 10.148H17.696V23Z" fill="#373736"/>
</svg>
