<svg width="32" height="32" viewBox="0 0 32 32" fill="none" xmlns="http://www.w3.org/2000/svg">
<path d="M16.0001 2.66675C8.64008 2.66675 2.66675 8.64008 2.66675 16.0001C2.66675 23.3601 8.64008 29.3334 16.0001 29.3334C23.3601 29.3334 29.3334 23.3601 29.3334 16.0001C29.3334 8.64008 23.3601 2.66675 16.0001 2.66675ZM16.0001 26.6667C10.1067 26.6667 5.33341 21.8934 5.33341 16.0001C5.33341 10.1067 10.1067 5.33341 16.0001 5.33341C21.8934 5.33341 26.6667 10.1067 26.6667 16.0001C26.6667 21.8934 21.8934 26.6667 16.0001 26.6667Z" fill="#C4C4C4"/>
<path d="M20.468 23H11.828V21.524L15.14 18.158C15.788 17.498 16.328 16.928 16.76 16.448C17.192 15.956 17.516 15.488 17.732 15.044C17.948 14.588 18.056 14.096 18.056 13.568C18.056 12.92 17.864 12.428 17.48 12.092C17.096 11.756 16.598 11.588 15.986 11.588C15.398 11.588 14.87 11.696 14.402 11.912C13.934 12.128 13.448 12.44 12.944 12.848L11.918 11.57C12.434 11.138 13.022 10.766 13.682 10.454C14.342 10.13 15.128 9.968 16.04 9.968C17.264 9.968 18.224 10.28 18.92 10.904C19.628 11.528 19.982 12.362 19.982 13.406C19.982 14.09 19.844 14.726 19.568 15.314C19.292 15.89 18.902 16.466 18.398 17.042C17.894 17.618 17.3 18.236 16.616 18.896L14.222 21.218V21.308H20.468V23Z" fill="#C4C4C4"/>
</svg>
