<svg width="32" height="32" viewBox="0 0 32 32" fill="none" xmlns="http://www.w3.org/2000/svg">
<path d="M16.0001 2.66675C8.64008 2.66675 2.66675 8.64008 2.66675 16.0001C2.66675 23.3601 8.64008 29.3334 16.0001 29.3334C23.3601 29.3334 29.3334 23.3601 29.3334 16.0001C29.3334 8.64008 23.3601 2.66675 16.0001 2.66675ZM16.0001 26.6667C10.1067 26.6667 5.33341 21.8934 5.33341 16.0001C5.33341 10.1067 10.1067 5.33341 16.0001 5.33341C21.8934 5.33341 26.6667 10.1067 26.6667 16.0001C26.6667 21.8934 21.8934 26.6667 16.0001 26.6667Z" fill="#C4C4C4"/>
<path d="M19.964 13.118C19.964 13.994 19.712 14.69 19.208 15.206C18.716 15.722 18.074 16.064 17.282 16.232V16.304C18.302 16.424 19.07 16.748 19.586 17.276C20.102 17.792 20.36 18.476 20.36 19.328C20.36 20.072 20.18 20.738 19.82 21.326C19.472 21.902 18.926 22.358 18.182 22.694C17.45 23.018 16.508 23.18 15.356 23.18C14.672 23.18 14.036 23.126 13.448 23.018C12.86 22.91 12.302 22.73 11.774 22.478V20.75C12.314 21.026 12.89 21.236 13.502 21.38C14.126 21.524 14.72 21.596 15.284 21.596C16.376 21.596 17.162 21.392 17.642 20.984C18.122 20.564 18.362 19.982 18.362 19.238C18.362 18.518 18.074 17.99 17.498 17.654C16.922 17.318 16.058 17.15 14.906 17.15H13.736V15.584H14.924C16.016 15.584 16.808 15.38 17.3 14.972C17.792 14.564 18.038 14.03 18.038 13.37C18.038 12.794 17.846 12.35 17.462 12.038C17.09 11.714 16.55 11.552 15.842 11.552C15.182 11.552 14.606 11.654 14.114 11.858C13.634 12.062 13.184 12.308 12.764 12.596L11.828 11.282C12.296 10.922 12.866 10.616 13.538 10.364C14.222 10.1 15.008 9.968 15.896 9.968C17.228 9.968 18.236 10.262 18.92 10.85C19.616 11.426 19.964 12.182 19.964 13.118Z" fill="#C4C4C4"/>
</svg>
