<svg width="50" height="52" viewBox="0 0 50 52" fill="none" xmlns="http://www.w3.org/2000/svg">
<path d="M49.2949 23.8875V28.1127C49.2949 29.279 48.9373 30.2748 48.2221 31.1C47.5069 31.9252 46.5771 32.3379 45.4328 32.3379H22.1942L31.8659 42.0426C32.7022 42.8348 33.1203 43.8251 33.1203 45.0135C33.1203 46.2018 32.7022 47.192 31.8659 47.9843L29.3903 50.493C28.576 51.3072 27.5857 51.7143 26.4194 51.7143C25.2751 51.7143 24.2738 51.3072 23.4155 50.493L1.92645 28.9709C1.11222 28.1567 0.705109 27.1664 0.705109 26.0001C0.705109 24.8557 1.11222 23.8545 1.92645 22.9962L23.4155 1.54011C24.2518 0.703881 25.253 0.285767 26.4194 0.285767C27.5637 0.285767 28.554 0.703881 29.3903 1.54011L31.8659 3.9828C32.7022 4.81905 33.1203 5.82034 33.1203 6.98665C33.1203 8.15299 32.7022 9.15428 31.8659 9.99051L22.1942 19.6623H45.4328C46.5771 19.6623 47.5069 20.0749 48.2221 20.9001C48.9373 21.7253 49.2949 22.7211 49.2949 23.8875Z" fill="#F2F2F2"/>
</svg>
