<svg width="300" height="189" viewBox="0 0 300 189" fill="none" xmlns="http://www.w3.org/2000/svg">
<g clip-path="url(#clip0_2:110)">
<path d="M300 0H0V189H300V0Z" fill="#373736"/>
<path d="M179.438 94.5L101.062 189H261.75L179.438 94.5Z" fill="#F2F2F2"/>
<path d="M179.437 94.5L163.669 189H261.75L179.437 94.5Z" fill="#706F6F"/>
<path d="M-11.25 189L74.625 139.02L153 189H-11.25Z" fill="#CDCED7"/>
<path d="M63.1875 189L74.625 139.02L153 189H63.1875Z" fill="#746D6A"/>
<path d="M225.562 114.66L291 189H164.25L225.562 114.66Z" fill="#A8ABBC"/>
<path d="M225.562 114.66L291 189H217.875L225.562 114.66Z" fill="#726E64"/>
<path d="M120.188 145.95L166.125 189H68.8125L120.188 145.95Z" fill="#8589A2"/>
<path d="M110.062 189L120.188 145.95L166.125 189H110.062Z" fill="#697061"/>
<path d="M320.625 189L262.688 132.72L205.5 189H320.625Z" fill="#626988"/>
<path d="M320.625 189L262.688 132.72L255.938 189H320.625Z" fill="#5A7266"/>
<path d="M226.875 189L182.062 144.27L135.938 189H226.875Z" fill="#404A6F"/>
<path d="M176.812 189H226.875L182.062 144.27L176.812 189Z" fill="#4A7373"/>
</g>
<defs>
<clipPath id="clip0_2:110">
<rect width="300" height="189" fill="white"/>
</clipPath>
</defs>
</svg>
