<svg width="60" height="40" viewBox="0 0 60 40" fill="none" xmlns="http://www.w3.org/2000/svg">
<rect width="60" height="40" rx="5" fill="white"/>
<path d="M49.7382 20.0666C49.7401 26.5914 44.4521 31.8818 37.9273 31.8835C31.4024 31.8851 26.1121 26.5974 26.1104 20.0726C26.1104 20.0704 26.1104 20.0687 26.1104 20.0666C26.1086 13.5419 31.3966 8.25125 37.9212 8.24951C44.4461 8.24778 49.7365 13.5358 49.7382 20.0606C49.7382 20.0626 49.7382 20.0644 49.7382 20.0666Z" fill="#FF9900"/>
<path d="M22.0006 8.25348C15.5144 8.29468 10.2627 13.5716 10.2627 20.0675C10.2627 26.5887 15.5554 31.8813 22.0767 31.8813C25.1374 31.8813 27.9272 30.7149 30.0266 28.8032C30.0264 28.8032 30.0262 28.8029 30.0256 28.8027H30.0282C30.458 28.4109 30.859 27.9883 31.2275 27.5376H28.8071C28.4839 27.1472 28.1902 26.7404 27.9263 26.3207H32.1007C32.3546 25.9144 32.5844 25.4925 32.7884 25.0556H27.2371C27.0479 24.65 26.8836 24.2352 26.7434 23.8144H33.2827C33.6768 22.6368 33.8907 21.3769 33.8907 20.0673C33.8907 19.1991 33.7966 18.3525 33.6184 17.5375H26.3966C26.486 17.118 26.599 16.7036 26.7336 16.2964H33.2754C33.1291 15.8631 32.9592 15.4408 32.766 15.0315H27.2364C27.4359 14.6053 27.6619 14.1908 27.9143 13.7905H32.0856C31.808 13.3483 31.5008 12.9257 31.1687 12.5255H28.843C29.2026 12.1023 29.5984 11.7037 30.0282 11.3321C27.9287 9.42014 25.138 8.25348 22.0767 8.25348C22.0512 8.25348 22.026 8.25334 22.0006 8.25348Z" fill="#CC0000"/>
<path d="M48.5527 26.2427C48.6169 26.2427 48.6795 26.2593 48.7405 26.2921C48.8019 26.3249 48.8491 26.3723 48.8832 26.4337C48.9173 26.4945 48.9344 26.5587 48.9344 26.6251C48.9344 26.6907 48.9175 26.7541 48.8839 26.8149C48.8504 26.8756 48.8032 26.9229 48.7424 26.9567C48.6823 26.9899 48.6187 27.0067 48.5525 27.0067C48.4864 27.0067 48.4229 26.9899 48.3624 26.9567C48.3017 26.9228 48.2548 26.8757 48.2207 26.8149C48.1871 26.7541 48.1704 26.6907 48.1704 26.6251C48.1704 26.5587 48.1873 26.4945 48.2216 26.4337C48.256 26.3723 48.3035 26.3253 48.3644 26.2921C48.426 26.2593 48.4885 26.2427 48.5527 26.2427ZM48.5527 26.306C48.4992 26.306 48.4469 26.3199 48.3959 26.3475C48.3452 26.3751 48.3056 26.4141 48.2771 26.4659C48.2481 26.5168 48.2337 26.5696 48.2337 26.6251C48.2337 26.68 48.2479 26.7331 48.2757 26.7835C48.3043 26.8337 48.3437 26.8732 48.3941 26.9015C48.4449 26.9296 48.4976 26.9435 48.5525 26.9435C48.6077 26.9435 48.6605 26.9296 48.7111 26.9015C48.7615 26.8732 48.8008 26.8337 48.8289 26.7835C48.8568 26.7331 48.8707 26.6801 48.8707 26.6251C48.8707 26.5696 48.8565 26.5167 48.8279 26.4659C48.7995 26.4141 48.7597 26.3751 48.7087 26.3475C48.6581 26.3197 48.6061 26.306 48.5527 26.306ZM48.3852 26.836V26.4251H48.5268C48.5748 26.4251 48.6097 26.4288 48.6313 26.4368C48.6529 26.4444 48.6701 26.4573 48.6831 26.4764C48.6957 26.4952 48.7023 26.5152 48.7023 26.5365C48.7023 26.5667 48.6916 26.5928 48.67 26.6149C48.6489 26.6371 48.6203 26.6497 48.5848 26.6524C48.5993 26.6584 48.6109 26.666 48.62 26.6743C48.6367 26.6903 48.6567 26.7173 48.6807 26.7556L48.7307 26.836H48.6499L48.6136 26.7713C48.5849 26.7204 48.5619 26.6887 48.5441 26.6756C48.532 26.6664 48.5143 26.6616 48.4912 26.6616H48.4521V26.8364H48.3855L48.3852 26.836ZM48.4516 26.6047H48.5321C48.5705 26.6047 48.5965 26.5988 48.6105 26.5875C48.6247 26.5757 48.6317 26.5608 48.6317 26.5419C48.6317 26.5296 48.6285 26.5187 48.6217 26.5093C48.6148 26.4996 48.6055 26.4927 48.5933 26.4877C48.5815 26.4831 48.5593 26.4804 48.5271 26.4804H48.4519V26.6047" fill="#FCB340"/>
<path d="M25.9972 23.4559L26.1545 22.3865C26.0685 22.3865 25.9421 22.4237 25.8304 22.4237C25.3925 22.4237 25.3378 22.1897 25.3722 22.0188L25.8037 19.8681H26.4693L26.6065 18.6544H25.9792L26.1069 17.9189H24.7946C24.7669 17.9467 24.0522 22.0552 24.0522 22.5557C24.0522 23.2964 24.468 23.626 25.0544 23.6208C25.5133 23.6169 25.871 23.4899 25.9972 23.4559Z" fill="#000066"/>
<path d="M26.3955 21.4173C26.3955 23.1949 27.5687 23.6172 28.5684 23.6172C29.4912 23.6172 29.9751 23.4033 29.9751 23.4033L30.1967 22.19C30.1967 22.19 29.417 22.5071 28.7832 22.5071C27.4324 22.5071 27.6692 21.4999 27.6692 21.4999L30.2643 21.5077C30.2643 21.5077 30.4295 20.6929 30.4295 20.3608C30.4295 19.5319 29.9779 18.5143 28.5968 18.5143C27.332 18.5145 26.3955 19.8773 26.3955 21.4173ZM28.6016 19.6407C29.3115 19.6407 29.1806 20.4385 29.1806 20.5032H27.784C27.784 20.4205 27.9159 19.6407 28.6016 19.6407Z" fill="#000066"/>
<path d="M36.5661 23.4555L36.7913 22.0843C36.7913 22.0843 36.1737 22.3938 35.7504 22.3938C34.858 22.3938 34.5 21.7124 34.5 20.9803C34.5 19.4953 35.2677 18.6783 36.1224 18.6783C36.7635 18.6783 37.2777 19.0381 37.2777 19.0381L37.4831 17.7057C37.4831 17.7057 36.8759 17.2672 36.2223 17.2647C34.2563 17.2569 33.1313 18.6257 33.1313 20.992C33.1313 22.5604 33.9644 23.6278 35.4655 23.6278C35.8899 23.6278 36.5661 23.4555 36.5661 23.4555Z" fill="#000066"/>
<path d="M19.0783 18.5339C18.2158 18.5339 17.5547 18.8111 17.5547 18.8111L17.3721 19.8947C17.3721 19.8947 17.9178 19.673 18.7429 19.673C19.2113 19.673 19.5539 19.7257 19.5539 20.1063C19.5539 20.3375 19.5121 20.4229 19.5121 20.4229C19.5121 20.4229 19.1425 20.3921 18.9713 20.3921C17.7433 20.3921 16.7407 20.8563 16.7407 22.2561C16.7407 23.3591 17.4905 23.6121 17.9551 23.6121C18.8427 23.6121 19.1941 23.0517 19.2143 23.0501L19.2041 23.5151C19.2041 23.5151 20.3115 23.5151 20.3117 23.5151L20.8058 20.0511C20.8058 18.5811 19.5237 18.5339 19.0783 18.5339ZM19.2701 21.3467C19.2942 21.5582 19.2154 22.5582 18.4578 22.5582C18.0671 22.5582 17.9657 22.2595 17.9657 22.0833C17.9657 21.7387 18.1527 21.3255 19.0743 21.3255C19.289 21.3255 19.2339 21.341 19.2701 21.3467Z" fill="#000066"/>
<path d="M21.9834 23.5867C22.2667 23.5867 23.8863 23.6588 23.8863 21.9875C23.8863 20.4247 22.3871 20.7336 22.3871 20.1056C22.3871 19.7933 22.6315 19.6949 23.0783 19.6949C23.2555 19.6949 23.9379 19.7513 23.9379 19.7513L24.0964 18.6407C24.0964 18.6408 23.6548 18.5419 22.9359 18.5419C22.0054 18.5419 21.0608 18.9133 21.0608 20.1843C21.0608 21.6245 22.6358 21.4799 22.6358 22.0865C22.6358 22.4915 22.1958 22.5248 21.8566 22.5248C21.2698 22.5248 20.7415 22.3233 20.7396 22.3331L20.5718 23.4324C20.6023 23.4417 20.9283 23.5867 21.9834 23.5867Z" fill="#000066"/>
<path d="M46.9422 17.5265L46.7148 19.221C46.7148 19.221 46.2411 18.567 45.4999 18.567C44.1054 18.567 43.3867 19.9568 43.3867 21.5531C43.3867 22.5838 43.8993 23.5941 44.9466 23.5941C45.7001 23.5941 46.1178 23.0686 46.1178 23.0686L46.0625 23.5173H47.2862L48.2471 17.5357L46.9422 17.5265ZM46.4019 20.82C46.4019 21.4843 46.0729 22.3719 45.3911 22.3719C44.9383 22.3719 44.7261 21.9918 44.7261 21.3954C44.7261 20.4201 45.1641 19.7768 45.717 19.7768C46.1695 19.7768 46.4019 20.0874 46.4019 20.82Z" fill="#000066"/>
<path d="M12.2677 23.522L13.0334 19.006L13.146 23.522H14.0125L15.6292 19.006L14.913 23.522H16.2008L17.1924 17.5324L15.1468 17.5168L13.93 21.184L13.8966 17.5324H12.022L11.0161 23.522H12.2677Z" fill="#000066"/>
<path d="M31.6483 23.5306C32.0144 21.4486 32.1448 19.8044 33.2126 20.1449C33.3659 19.339 33.7314 18.6382 33.8983 18.2972C33.8983 18.2972 33.8455 18.2186 33.5155 18.2186C32.9522 18.2186 32.2 19.3618 32.2 19.3618L32.3124 18.655H31.141L30.3564 23.5305H31.6483V23.5306Z" fill="#000066"/>
<path d="M39.2015 18.5339C38.3386 18.5339 37.6775 18.8111 37.6775 18.8111L37.495 19.8947C37.495 19.8947 38.041 19.673 38.8656 19.673C39.3342 19.673 39.6767 19.7257 39.6767 20.1063C39.6767 20.3375 39.635 20.4229 39.635 20.4229C39.635 20.4229 39.2655 20.3921 39.0943 20.3921C37.8662 20.3921 36.8638 20.8563 36.8638 22.2561C36.8638 23.3591 37.6134 23.6121 38.078 23.6121C38.9654 23.6121 39.317 23.0517 39.3371 23.0501L39.3267 23.5151H40.4346L40.9286 20.0511C40.9287 18.5811 39.6466 18.5339 39.2015 18.5339ZM39.393 21.3467C39.417 21.5582 39.3382 22.5582 38.5807 22.5582C38.1898 22.5582 38.0884 22.2595 38.0884 22.0833C38.0884 21.7387 38.2754 21.3255 39.1971 21.3255C39.4119 21.3255 39.357 21.341 39.393 21.3467Z" fill="#000066"/>
<path d="M42.2033 23.5308C42.4043 21.999 42.7765 19.8486 43.7674 20.145C43.9206 19.3392 43.7729 19.3413 43.443 19.3413C42.8793 19.3413 42.7545 19.3618 42.7545 19.3618L42.867 18.655H41.6957L40.9111 23.5306H42.2033V23.5308Z" fill="#000066"/>
<path d="M26.3251 23.0743L26.4825 22.0051C26.3965 22.0051 26.27 22.0419 26.1584 22.0419C25.7205 22.0419 25.6723 21.8091 25.7001 21.637L26.0539 19.4554H26.7193L26.88 18.2727H26.2525L26.3803 17.5372H25.1224C25.0947 17.565 24.3799 21.6736 24.3799 22.1739C24.3799 22.9146 24.7957 23.2444 25.3821 23.2391C25.8413 23.2352 26.1989 23.1082 26.3251 23.0743Z" fill="white"/>
<path d="M26.7231 21.036C26.7231 22.8136 27.8965 23.236 28.8961 23.236C29.8187 23.236 30.2247 23.0297 30.2247 23.0297L30.4463 21.8165C30.4463 21.8165 29.7445 22.1257 29.1106 22.1257C27.7599 22.1257 27.9965 21.1187 27.9965 21.1187H30.5527C30.5527 21.1187 30.7178 20.3036 30.7178 19.9715C30.7178 19.1427 30.3053 18.1328 28.9242 18.1328C27.6594 18.1331 26.7231 19.4959 26.7231 21.036ZM28.929 19.2593C29.6389 19.2593 29.5079 20.0571 29.5079 20.1216H28.1114C28.1114 20.0392 28.2434 19.2593 28.929 19.2593Z" fill="white"/>
<path d="M36.895 23.0739L37.1201 21.7026C37.1201 21.7026 36.5029 22.012 36.0793 22.012C35.187 22.012 34.8292 21.3307 34.8292 20.5987C34.8292 19.1138 35.5969 18.2968 36.4515 18.2968C37.0925 18.2968 37.6069 18.6567 37.6069 18.6567L37.8122 17.3243C37.8122 17.3243 37.0494 17.0156 36.3955 17.0156C34.9434 17.0156 33.5308 18.2754 33.5308 20.6412C33.5308 22.21 34.2936 23.2462 35.7946 23.2462C36.219 23.2463 36.895 23.0739 36.895 23.0739Z" fill="white"/>
<path d="M19.4071 18.1525C18.5445 18.1525 17.8833 18.4297 17.8833 18.4297L17.7008 19.5133C17.7008 19.5133 18.2465 19.2915 19.0715 19.2915C19.5399 19.2915 19.8825 19.3442 19.8825 19.7249C19.8825 19.9561 19.8405 20.0414 19.8405 20.0414C19.8405 20.0414 19.4711 20.0105 19.3 20.0105C18.2121 20.0105 17.0693 20.4747 17.0693 21.8745C17.0693 22.9774 17.8191 23.2305 18.2837 23.2305C19.1712 23.2305 19.5537 22.6546 19.5741 22.6529L19.5327 23.1335H20.6403L21.1344 19.6694C21.1344 18.1998 19.8524 18.1525 19.4071 18.1525ZM19.6765 20.973C19.7005 21.1846 19.5439 22.1765 18.7865 22.1765C18.3959 22.1765 18.2943 21.8781 18.2943 21.7015C18.2943 21.3573 18.4813 20.9439 19.4031 20.9439C19.6175 20.9442 19.6404 20.9671 19.6765 20.973Z" fill="white"/>
<path d="M22.3114 23.205C22.5947 23.205 24.2144 23.277 24.2144 21.6056C24.2144 20.0431 22.7151 20.3518 22.7151 19.724C22.7151 19.4115 22.9595 19.3131 23.4062 19.3131C23.5835 19.3131 24.2658 19.3695 24.2658 19.3695L24.4244 18.2588C24.4244 18.259 23.9828 18.16 23.2639 18.16C22.3334 18.16 21.3888 18.5315 21.3888 19.8024C21.3888 21.2426 22.9638 21.098 22.9638 21.7047C22.9638 22.1096 22.5238 22.1426 22.1847 22.1426C21.5979 22.1426 21.0695 21.9412 21.0676 21.9508L20.8999 23.0503C20.9303 23.0596 21.2562 23.205 22.3114 23.205Z" fill="white"/>
<path d="M47.3145 17.1558L47.0432 18.8394C47.0432 18.8394 46.5697 18.1854 45.8285 18.1854C44.676 18.1854 43.7153 19.575 43.7153 21.1717C43.7153 22.2023 44.2277 23.2122 45.2752 23.2122C46.0287 23.2122 46.4464 22.6869 46.4464 22.6869L46.3911 23.1356H47.6145L48.5755 17.1538L47.3145 17.1558ZM46.7304 20.4385C46.7304 21.1029 46.4015 21.9903 45.7195 21.9903C45.2668 21.9903 45.0547 21.6103 45.0547 21.0139C45.0547 20.0387 45.4927 19.3953 46.0453 19.3953C46.4981 19.3951 46.7304 19.7062 46.7304 20.4385Z" fill="white"/>
<path d="M12.5961 23.1406L13.3618 18.6246L13.4742 23.1406H14.3409L15.9576 18.6246L15.2414 23.1406H16.5292L17.5209 17.1509H15.5296L14.2894 20.8259L14.2249 17.1509H12.3893L11.3833 23.1406H12.5961Z" fill="white"/>
<path d="M31.9768 23.1489C32.3429 21.0667 32.4108 19.376 33.2845 19.6855C33.4375 18.8796 33.5851 18.5679 33.752 18.2268C33.752 18.2268 33.6737 18.2104 33.5095 18.2104C32.9461 18.2104 32.5288 18.98 32.5288 18.98L32.6409 18.2732H31.4697L30.6851 23.1489H31.9768V23.1489Z" fill="white"/>
<path d="M39.7976 18.1525C38.935 18.1525 38.2738 18.4297 38.2738 18.4297L38.0914 19.5133C38.0914 19.5133 38.6372 19.2915 39.4621 19.2915C39.9305 19.2915 40.2729 19.3442 40.2729 19.7249C40.2729 19.9561 40.2312 20.0414 40.2312 20.0414C40.2312 20.0414 39.8617 20.0105 39.6905 20.0105C38.6028 20.0105 37.46 20.4747 37.46 21.8745C37.46 22.9774 38.2096 23.2305 38.6742 23.2305C39.5617 23.2305 39.9442 22.6546 39.9645 22.6529L39.9233 23.1335C39.9233 23.1335 41.0305 23.1335 41.0309 23.1335L41.5249 19.6694C41.525 18.1998 40.2429 18.1525 39.7976 18.1525ZM40.0674 20.973C40.0914 21.1846 39.9346 22.1765 39.177 22.1765C38.7864 22.1765 38.685 21.8781 38.685 21.7015C38.685 21.3573 38.8721 20.9439 39.7937 20.9439C40.0081 20.9442 40.0309 20.9671 40.0674 20.973Z" fill="white"/>
<path d="M42.5367 23.1489C42.903 21.0667 42.9709 19.376 43.8443 19.6855C43.9975 18.8796 44.1453 18.5679 44.3121 18.2268C44.3121 18.2268 44.2338 18.2104 44.0695 18.2104C43.5062 18.2104 43.0889 18.98 43.0889 18.98L43.201 18.2732H42.0298L41.2451 23.1489H42.5367V23.1489Z" fill="white"/>
<path d="M48.5476 22.3966C48.6114 22.3966 48.6744 22.413 48.735 22.4463C48.7962 22.4786 48.8438 22.5261 48.878 22.5875C48.9122 22.6486 48.929 22.7122 48.929 22.7787C48.929 22.8445 48.9122 22.908 48.8785 22.9686C48.845 23.0293 48.798 23.0769 48.7373 23.1104C48.6768 23.1437 48.6133 23.1605 48.5474 23.1605C48.481 23.1605 48.4176 23.1437 48.3569 23.1104C48.2964 23.0766 48.2494 23.0293 48.2158 22.9686C48.1817 22.908 48.165 22.8445 48.165 22.7787C48.165 22.7122 48.182 22.6486 48.2162 22.5875C48.2506 22.5261 48.2984 22.4789 48.3593 22.4463C48.4208 22.413 48.4837 22.3966 48.5476 22.3966ZM48.5476 22.4595C48.4941 22.4595 48.4418 22.4734 48.3908 22.5013C48.3398 22.5285 48.3002 22.5678 48.2716 22.6193C48.243 22.6701 48.2286 22.7233 48.2286 22.7785C48.2286 22.8337 48.2425 22.8865 48.2704 22.9369C48.2988 22.9872 48.3382 23.0266 48.3892 23.055C48.4396 23.0828 48.4922 23.0968 48.5476 23.0968C48.6025 23.0968 48.6556 23.0828 48.706 23.055C48.7564 23.0266 48.7958 22.9872 48.8238 22.9369C48.852 22.8861 48.8657 22.8337 48.8657 22.7785C48.8657 22.7233 48.8514 22.6701 48.8229 22.6193C48.7945 22.5678 48.7549 22.5285 48.7037 22.5013C48.653 22.4735 48.6012 22.4595 48.5476 22.4595ZM48.3802 22.9897V22.5786H48.5217C48.5698 22.5786 48.605 22.5825 48.6264 22.5903C48.648 22.5977 48.6649 22.6109 48.6781 22.6299C48.691 22.6489 48.6976 22.6687 48.6976 22.6901C48.6976 22.7201 48.6866 22.7463 48.665 22.7685C48.644 22.7906 48.6156 22.8034 48.5801 22.8058C48.5942 22.8119 48.606 22.8193 48.615 22.8276C48.6314 22.8438 48.6517 22.871 48.6757 22.909L48.726 22.9896H48.6448L48.6086 22.9249C48.5798 22.8738 48.5568 22.8421 48.5392 22.8292C48.527 22.8197 48.5093 22.815 48.486 22.815H48.4472V22.9898L48.3802 22.9897ZM48.4466 22.7583H48.5272C48.5657 22.7583 48.5917 22.7526 48.6056 22.7411C48.6196 22.7299 48.6269 22.7146 48.6269 22.6955C48.6269 22.6834 48.6236 22.6725 48.6169 22.6633C48.6101 22.6534 48.6006 22.6463 48.5885 22.6414C48.5764 22.6367 48.5546 22.6343 48.5221 22.6343H48.4468V22.7583" fill="white"/>
</svg>
