<svg width="64" height="64" viewBox="0 0 64 64" fill="none" xmlns="http://www.w3.org/2000/svg">
<path d="M0 4C0 2.93913 0.421427 1.92172 1.17157 1.17157C1.92172 0.421427 2.93913 0 4 0H60C61.0609 0 62.0783 0.421427 62.8284 1.17157C63.5786 1.92172 64 2.93913 64 4V60C64 61.0609 63.5786 62.0783 62.8284 62.8284C62.0783 63.5786 61.0609 64 60 64H4C2.93913 64 1.92172 63.5786 1.17157 62.8284C0.421427 62.0783 0 61.0609 0 60V4ZM16 4V28H48V4H16ZM48 36H16V60H48V36ZM4 4V12H12V4H4ZM12 16H4V24H12V16ZM4 28V36H12V28H4ZM12 40H4V48H12V40ZM4 52V60H12V52H4ZM60 4H52V12H60V4ZM52 16V24H60V16H52ZM60 28H52V36H60V28ZM52 40V48H60V40H52ZM60 52H52V60H60V52Z" fill="#F2F2F2"/>
</svg>
