<svg width="60" height="40" viewBox="0 0 60 40" fill="none" xmlns="http://www.w3.org/2000/svg">
<rect width="60" height="40" rx="5" fill="white"/>
<g clip-path="url(#clip0_22:844)">
<path d="M13.5624 16.7279L15.122 21.2845L16.6511 16.7279H18.4554L15.7642 23.4863H14.4187L11.7275 16.7279H13.5624Z" fill="#FF5B24"/>
<path d="M22.5224 22.4158C23.6539 22.4158 24.2961 21.8654 24.9078 21.0703C25.2442 20.6421 25.6723 20.5504 25.9781 20.795C26.2839 21.0397 26.3145 21.4984 25.9781 21.9265C25.0913 23.0886 23.9598 23.792 22.5224 23.792C20.9628 23.792 19.5867 22.9357 18.6387 21.4372C18.3634 21.0397 18.4246 20.6116 18.7304 20.3975C19.0362 20.1834 19.4949 20.2752 19.7702 20.7033C20.4429 21.7125 21.3604 22.4158 22.5224 22.4158ZM24.6325 18.6544C24.6325 19.2048 24.2044 19.5718 23.7151 19.5718C23.2258 19.5718 22.7977 19.2048 22.7977 18.6544C22.7977 18.1039 23.2258 17.7369 23.7151 17.7369C24.2044 17.7369 24.6325 18.1345 24.6325 18.6544Z" fill="#FF5B24"/>
<path d="M28.9451 16.7279V17.6454C29.4039 17.0031 30.1072 16.5444 31.147 16.5444C32.462 16.5444 33.991 17.6454 33.991 20.0001C33.991 22.4772 32.5231 23.6698 30.9941 23.6698C30.199 23.6698 29.465 23.364 28.9146 22.5995V25.8411H27.2632V16.7279H28.9451ZM28.9451 20.0918C28.9451 21.468 29.7402 22.2019 30.6271 22.2019C31.4834 22.2019 32.3396 21.5291 32.3396 20.0918C32.3396 18.6851 31.4834 18.0123 30.6271 18.0123C29.7708 18.0123 28.9451 18.6545 28.9451 20.0918Z" fill="#FF5B24"/>
<path d="M36.8963 16.7279V17.6454C37.355 17.0031 38.0584 16.5444 39.0981 16.5444C40.4131 16.5444 41.9422 17.6454 41.9422 20.0001C41.9422 22.4772 40.4743 23.6698 38.9452 23.6698C38.1501 23.6698 37.4162 23.364 36.8657 22.5995V25.8411H35.2144V16.7279H36.8963ZM36.8963 20.0918C36.8963 21.468 37.6914 22.2019 38.5783 22.2019C39.4345 22.2019 40.2908 21.5291 40.2908 20.0918C40.2908 18.6851 39.4345 18.0123 38.5783 18.0123C37.6914 18.0123 36.8963 18.6545 36.8963 20.0918Z" fill="#FF5B24"/>
<path d="M45.4585 16.5444C46.8346 16.5444 47.8132 17.1866 48.2413 18.7769L46.7429 19.0215C46.7123 18.2264 46.223 17.9512 45.489 17.9512C44.9386 17.9512 44.5105 18.1958 44.5105 18.5934C44.5105 18.8992 44.7245 19.205 45.3667 19.3273L46.4982 19.5414C47.5991 19.7554 48.2108 20.4894 48.2108 21.468C48.2108 22.9359 46.8958 23.6698 45.642 23.6698C44.327 23.6698 42.8591 22.997 42.645 21.3457L44.1435 21.101C44.2352 21.9573 44.7551 22.2631 45.6114 22.2631C46.2536 22.2631 46.6817 22.0184 46.6817 21.6209C46.6817 21.2539 46.4676 20.9787 45.7643 20.8564L44.7245 20.6729C43.6236 20.4588 42.9508 19.6943 42.9508 18.7157C42.9814 17.1866 44.3576 16.5444 45.4585 16.5444Z" fill="#FF5B24"/>
</g>
<defs>
<clipPath id="clip0_22:844">
<rect width="50" height="20.2141" fill="white" transform="translate(5 10)"/>
</clipPath>
</defs>
</svg>
