<svg width="60" height="40" viewBox="0 0 60 40" fill="none" xmlns="http://www.w3.org/2000/svg">
<rect width="60" height="40" rx="5" fill="white"/>
<path d="M25.0359 24.8836L26.7466 14.8446H29.4829L27.7709 24.8836H25.0359ZM37.6569 15.061C37.1149 14.8577 36.2653 14.6394 35.2045 14.6394C32.5006 14.6394 30.5962 16.001 30.5799 17.9524C30.5646 19.395 31.9396 20.1997 32.9775 20.6799C34.0427 21.1721 34.4007 21.4858 34.3955 21.9252C34.3887 22.5981 33.545 22.9054 32.7584 22.9054C31.6633 22.9054 31.0814 22.7533 30.1828 22.3786L29.8301 22.2191L29.4461 24.4663C30.0852 24.7467 31.267 24.9894 32.4942 25.002C35.3706 25.002 37.2379 23.6559 37.2591 21.572C37.2693 20.4299 36.5404 19.561 34.9617 18.8444C34.0052 18.38 33.4195 18.0701 33.4257 17.5998C33.4257 17.1825 33.9215 16.7363 34.9929 16.7363C35.8875 16.7224 36.5359 16.9176 37.0409 17.1209L37.2861 17.2368L37.6569 15.061ZM44.6984 14.8445H42.5841C41.9291 14.8445 41.4388 15.0233 41.1512 15.677L37.0874 24.877H39.9608C39.9608 24.877 40.4305 23.64 40.5367 23.3684C40.8507 23.3684 43.6421 23.3727 44.0411 23.3727C44.123 23.7242 44.3741 24.877 44.3741 24.877H46.9131L44.6984 14.8442V14.8445ZM41.3437 21.3271C41.5701 20.7486 42.434 18.5207 42.434 18.5207C42.4179 18.5474 42.6586 17.9395 42.7967 17.5625L42.9817 18.4281C42.9817 18.4281 43.5056 20.8244 43.6151 21.3269H41.3437V21.3271ZM22.7129 14.8445L20.034 21.6906L19.7486 20.2994C19.2499 18.6956 17.6961 16.958 15.959 16.0881L18.4086 24.8676L21.3037 24.8644L25.6116 14.8444L22.7129 14.8443" fill="#0E4595"/>
<path d="M17.5347 14.8442H13.1224L13.0874 15.0531C16.5202 15.8841 18.7915 17.8922 19.7346 20.3054L18.7751 15.6921C18.6096 15.0564 18.1291 14.8666 17.5348 14.8445" fill="#F2AE14"/>
</svg>
