<svg width="69" height="64" viewBox="0 0 69 64" fill="none" xmlns="http://www.w3.org/2000/svg">
<path d="M12.2216 61.2269C11.8888 63.1211 13.7575 64.6016 15.4043 63.7568L34.1335 54.132L52.8585 63.7568C54.5053 64.6016 56.374 63.1211 56.0412 61.2311L52.5001 41.0514L67.5262 26.7335C68.9341 25.3939 68.2088 22.945 66.3231 22.6805L45.4265 19.7111L36.1088 1.25065C35.9313 0.876445 35.6513 0.560285 35.3013 0.338902C34.9512 0.117518 34.5456 0 34.1314 0C33.7172 0 33.3116 0.117518 32.9615 0.338902C32.6115 0.560285 32.3314 0.876445 32.1539 1.25065L22.8362 19.7154L1.93971 22.6848C0.0582502 22.9493 -0.671294 25.3981 0.732332 26.7378L15.7627 41.0556L12.2216 61.2354V61.2269ZM33.148 49.4219L17.4223 57.5024L20.3831 40.6205C20.4525 40.2318 20.4253 39.8321 20.3041 39.4565C20.1828 39.0808 19.9712 38.7407 19.6877 38.466L7.2897 26.6482L24.5769 24.1908C24.9349 24.1367 25.2744 23.9967 25.5664 23.7827C25.8584 23.5687 26.0942 23.2871 26.2536 22.9621L34.125 7.35579L42.0049 22.9621C42.1643 23.2871 42.4001 23.5687 42.6921 23.7827C42.9841 23.9967 43.3236 24.1367 43.6816 24.1908L60.9688 26.6439L48.5708 38.4617C48.2867 38.7368 48.0746 39.0777 47.9534 39.4542C47.8321 39.8306 47.8053 40.2312 47.8754 40.6205L50.8362 57.5024L35.1105 49.4219C34.8064 49.2651 34.4692 49.1833 34.1271 49.1833C33.785 49.1833 33.4521 49.2651 33.148 49.4219Z" fill="#F2F2F2"/>
</svg>
